<?xml version="1.0" standalone="no"?>
<!DOCTYPE svg PUBLIC "-//W3C//DTD SVG 20010904//EN"
 "http://www.w3.org/TR/2001/REC-SVG-20010904/DTD/svg10.dtd">
<svg version="1.0" xmlns="http://www.w3.org/2000/svg"
 width="512.000000pt" height="512.000000pt" viewBox="0 0 512.000000 512.000000"
 preserveAspectRatio="xMidYMid meet">
<metadata>
Created by potrace 1.11, written by Peter Selinger 2001-2013
</metadata>
<g transform="translate(0.000000,512.000000) scale(0.100000,-0.100000)"
fill="#000000" stroke="none">
<path d="M0 2560 l0 -2560 2560 0 2560 0 0 2560 0 2560 -2560 0 -2560 0 0
-2560z m3495 1386 c180 -11 360 -74 477 -170 60 -49 131 -148 166 -233 44
-104 78 -338 51 -348 -18 -6 -332 -65 -335 -62 -1 1 2 27 8 57 6 30 8 100 6
155 -4 81 -10 112 -30 157 -68 147 -190 218 -415 241 -260 26 -448 -45 -496
-188 -21 -59 -22 -151 -3 -196 19 -45 87 -122 141 -159 70 -48 175 -97 365
-170 279 -108 451 -201 583 -319 202 -178 289 -360 289 -606 1 -148 -17 -228
-78 -353 -86 -178 -268 -325 -484 -392 -129 -39 -228 -52 -401 -52 -513 2
-812 171 -905 512 -13 48 -18 104 -18 212 -1 80 2 150 6 154 5 5 336 84 353
84 1 0 -7 -44 -17 -97 -27 -135 -21 -312 13 -397 30 -76 110 -163 182 -199
167 -82 453 -87 603 -11 91 46 135 111 153 223 17 108 -7 178 -92 268 -81 86
-195 151 -422 243 -71 29 -161 68 -200 88 -234 116 -408 282 -489 467 -48 108
-61 180 -60 340 0 137 3 157 28 230 52 152 164 293 301 381 72 45 204 98 298
119 79 18 247 33 302 28 17 -1 71 -5 120 -7z m-1395 -898 c0 -504 -4 -909 -10
-973 -49 -529 -265 -775 -679 -775 -235 1 -406 67 -557 215 -163 162 -197 348
-121 653 l22 87 133 36 c90 25 132 32 132 24 0 -7 -12 -68 -26 -136 -33 -154
-37 -337 -10 -439 34 -130 99 -198 197 -208 62 -6 90 8 118 59 50 89 51 96 51
1247 l0 1072 375 0 375 0 0 -862z"/>
</g>
</svg>
